<svg display="block" id="1118032787" role="presentation" viewBox="0 0 24 24" xmlns="http://www.w3.org/2000/svg"><g d="M 15.414 3.128 L 12.871 0.585 C 12.496 0.21 11.987 0 11.457 0 L 5 0 C 3.895 0 3 0.895 3 2 L 3 12.714 C 3 13.819 3.895 14.714 5 14.714 L 14 14.714 C 15.105 14.714 16 13.819 16 12.714 L 16 4.543 C 16 4.012 15.789 3.504 15.414 3.128 Z M 16 5 L 12 5 C 11.448 5 11 4.552 11 4 L 11 0 M 13 14.714 L 13 16 C 13 17.105 12.105 18 11 18 L 2 18 C 0.895 18 0 17.105 0 16 L 0 5 C 0 3.895 0.895 3 2 3 L 3 3" fill="transparent" height="18px" id="wpzKy1q1j" transform="translate(4 3)" width="16px"><path d="M 12.414 3.128 L 9.871 0.585 C 9.496 0.21 8.987 0 8.457 0 L 2 0 C 0.895 0 0 0.895 0 2 L 0 12.714 C 0 13.819 0.895 14.714 2 14.714 L 11 14.714 C 12.105 14.714 13 13.819 13 12.714 L 13 4.543 C 13 4.012 12.789 3.504 12.414 3.128 Z" fill="transparent" height="14.713999999999999px" id="DkTVJ1_Vl" stroke-dasharray="" stroke-linecap="round" stroke-linejoin="round" stroke-width="var(--hqwsut, 1)" stroke="var(--iuf2md, var(--token-57926c2e-1b32-46f0-b1a4-3565643d40b9, rgb(38, 113, 217)))" transform="translate(3 0)" width="13px"></path><path d="M 16 5 L 12 5 C 11.448 5 11 4.552 11 4 L 11 0 M 13 14.714 L 13 16 C 13 17.105 12.105 18 11 18 L 2 18 C 0.895 18 0 17.105 0 16 L 0 5 C 0 3.895 0.895 3 2 3 L 3 3" fill="transparent" height="18px" id="AncGonfTI" stroke-dasharray="" stroke-linecap="round" stroke-linejoin="round" stroke-width="var(--hqwsut, 1)" stroke="var(--iuf2md, var(--token-57926c2e-1b32-46f0-b1a4-3565643d40b9, rgb(38, 113, 217)))" width="16px"></path></g></svg>