<svg display="block" id="1246166738" role="presentation" viewBox="0 0 32 32" xmlns="http://www.w3.org/2000/svg"><g d="M 18.388 7.57 L 18.388 10.274 C 18.388 11.17 17.661 11.896 16.765 11.896 L 2.704 11.896 C 1.808 11.896 1.082 11.17 1.082 10.274 L 1.082 2.163 C 1.082 0.968 2.05 0 3.245 0 L 6.49 0 M 17.304 19.467 L 2.163 19.467 C 1.485 19.467 0.845 19.148 0.436 18.606 C 0.028 18.065 -0.103 17.362 0.083 16.71 L 1.234 12.681 C 1.367 12.216 1.792 11.896 2.275 11.896 L 17.193 11.896 C 17.675 11.896 18.1 12.216 18.233 12.681 L 19.383 16.71 C 19.57 17.362 19.439 18.064 19.031 18.606 C 18.622 19.148 17.983 19.466 17.304 19.467 Z M 7.571 16.222 L 11.898 16.222 M 12.98 4.326 L 10.816 2.163 L 12.98 0 M 16.225 0 L 18.388 2.163 L 16.225 4.326" fill="transparent" height="19.466665359912867px" id="EiNnkBz_H" transform="translate(6 6.8)" width="19.466666666666676px"><path d="M 17.306 7.57 L 17.306 10.274 C 17.306 11.17 16.58 11.896 15.684 11.896 L 1.622 11.896 C 0.726 11.896 0 11.17 0 10.274 L 0 2.163 C 0 0.968 0.969 0 2.163 0 L 5.408 0" fill="transparent" height="11.896296157572031px" id="XfQQhMWjx" stroke-dasharray="" stroke-linecap="round" stroke-linejoin="round" stroke-width="var(--hqwsut, 1)" stroke="var(--iuf2md, var(--token-57926c2e-1b32-46f0-b1a4-3565643d40b9, rgb(38, 113, 217)))" transform="translate(1.082 0)" width="17.306203126000316px"></path><path d="M 17.304 7.57 L 2.163 7.57 C 1.485 7.57 0.845 7.252 0.436 6.71 C 0.028 6.168 -0.103 5.466 0.083 4.813 L 1.234 0.784 C 1.367 0.32 1.792 0 2.275 0 L 17.193 0 C 17.675 0 18.1 0.32 18.233 0.784 L 19.383 4.813 C 19.57 5.466 19.439 6.168 19.031 6.71 C 18.622 7.251 17.983 7.57 17.304 7.57 Z" fill="transparent" height="7.570370289264673px" id="z3saDEZeA" stroke-dasharray="" stroke-linecap="round" stroke-linejoin="round" stroke-width="var(--hqwsut, 1)" stroke="var(--iuf2md, var(--token-57926c2e-1b32-46f0-b1a4-3565643d40b9, rgb(38, 113, 217)))" transform="translate(0 11.896)" width="19.466666666666672px"></path><path d="M 0 16.222 L 4.327 16.222 M 5.408 4.326 L 3.245 2.163 L 5.408 0 M 8.653 0 L 10.816 2.163 L 8.653 4.326" fill="transparent" height="16.22222065925598px" id="GJDnaWI4z" stroke-dasharray="" stroke-linecap="round" stroke-linejoin="round" stroke-width="var(--hqwsut, 1)" stroke="var(--iuf2md, var(--token-57926c2e-1b32-46f0-b1a4-3565643d40b9, rgb(38, 113, 217)))" transform="translate(7.571 0)" width="10.816376358157264px"></path></g></svg>