<svg display="block" id="1620035812" role="presentation" viewBox="0 0 24 24" xmlns="http://www.w3.org/2000/svg"><g d="M 16.609 5.075 L 0.461 5.075 M 13.846 9.692 C 16.14 9.692 18 11.551 18 13.846 C 18 16.14 16.14 18 13.846 18 C 11.552 18 9.692 16.14 9.692 13.846 C 9.692 11.551 11.552 9.692 13.846 9.692 M 10.775 16.617 L 2.768 16.617 C 2.034 16.617 1.329 16.325 0.81 15.805 C 0.291 15.286 0 14.581 0 13.847 L 0 2.769 C 0 1.24 1.24 0 2.769 0 L 13.846 0 C 14.581 0 15.285 0.291 15.805 0.811 C 16.324 1.33 16.616 2.035 16.616 2.769 L 16.616 10.776 M 13.561 12.027 L 13.561 13.65 L 14.837 14.428 M 10.198 7.843 C 10.173 7.843 10.152 7.864 10.152 7.889 C 10.152 7.914 10.173 7.934 10.198 7.934 C 10.223 7.934 10.243 7.914 10.243 7.889 C 10.243 7.864 10.223 7.843 10.198 7.843 M 6.966 7.843 C 6.954 7.843 6.943 7.848 6.934 7.857 C 6.926 7.866 6.922 7.877 6.922 7.889 C 6.923 7.914 6.943 7.934 6.968 7.934 C 6.993 7.933 7.013 7.913 7.013 7.888 C 7.012 7.863 6.991 7.843 6.966 7.843 M 3.735 7.843 C 3.723 7.843 3.711 7.848 3.703 7.857 C 3.695 7.866 3.69 7.877 3.691 7.889 C 3.691 7.908 3.702 7.924 3.719 7.931 C 3.736 7.938 3.755 7.934 3.768 7.921 C 3.781 7.908 3.785 7.888 3.778 7.872 C 3.77 7.855 3.753 7.844 3.735 7.844 M 6.966 10.613 C 6.954 10.612 6.943 10.617 6.934 10.626 C 6.926 10.635 6.922 10.647 6.922 10.659 C 6.923 10.684 6.943 10.703 6.968 10.703 C 6.993 10.702 7.013 10.682 7.013 10.657 C 7.012 10.632 6.991 10.612 6.966 10.613 M 3.735 10.613 C 3.723 10.612 3.711 10.617 3.703 10.626 C 3.695 10.635 3.69 10.647 3.691 10.659 C 3.69 10.678 3.702 10.695 3.719 10.702 C 3.737 10.709 3.757 10.705 3.77 10.692 C 3.783 10.678 3.787 10.658 3.779 10.641 C 3.771 10.624 3.754 10.613 3.735 10.613 M 6.966 13.383 C 6.954 13.383 6.943 13.387 6.934 13.396 C 6.926 13.405 6.922 13.417 6.922 13.429 C 6.923 13.447 6.934 13.463 6.951 13.47 C 6.968 13.476 6.987 13.472 7 13.459 C 7.011 13.446 7.014 13.427 7.007 13.41 C 7 13.394 6.984 13.383 6.966 13.383 M 3.735 13.383 C 3.723 13.383 3.711 13.387 3.703 13.396 C 3.695 13.405 3.69 13.417 3.691 13.429 C 3.691 13.454 3.712 13.474 3.737 13.473 C 3.762 13.472 3.782 13.452 3.781 13.427 C 3.781 13.402 3.76 13.382 3.735 13.383" fill="transparent" height="18px" id="SR14leMIc" transform="translate(3.5 3.5)" width="17.999999262065558px"><path d="M 16.147 0 L 0 0 M 13.385 4.616 C 15.679 4.616 17.539 6.476 17.539 8.771 C 17.539 11.065 15.679 12.925 13.385 12.925 C 11.09 12.925 9.231 11.065 9.231 8.771 C 9.231 6.476 11.09 4.616 13.385 4.616" fill="transparent" height="12.924898839483149px" id="ivhwu3kkv" stroke-dasharray="" stroke-linecap="round" stroke-linejoin="round" stroke-width="var(--hqwsut, 1)" stroke="var(--iuf2md, var(--token-57926c2e-1b32-46f0-b1a4-3565643d40b9, rgb(38, 113, 217)))" transform="translate(0.461 5.075)" width="17.53865013238874px"></path><path d="M 10.775 16.617 L 2.768 16.617 C 2.034 16.617 1.329 16.325 0.81 15.805 C 0.291 15.286 0 14.581 0 13.847 L 0 2.769 C 0 1.24 1.24 0 2.769 0 L 13.846 0 C 14.581 0 15.285 0.291 15.805 0.811 C 16.324 1.33 16.616 2.035 16.616 2.769 L 16.616 10.776" fill="transparent" height="16.616804431102935px" id="TeOlb_LPC" stroke-dasharray="" stroke-linecap="round" stroke-linejoin="round" stroke-width="var(--hqwsut, 1)" stroke="var(--iuf2md, var(--token-57926c2e-1b32-46f0-b1a4-3565643d40b9, rgb(38, 113, 217)))" width="16.615952838827017px"></path><path d="M 9.87 4.184 L 9.87 5.807 L 11.146 6.585 M 6.507 0 C 6.482 0 6.462 0.02 6.462 0.045 C 6.462 0.07 6.482 0.09 6.507 0.09 C 6.532 0.09 6.552 0.07 6.552 0.045 C 6.552 0.02 6.532 0 6.507 0 M 3.276 0 C 3.264 0 3.252 0.005 3.244 0.014 C 3.235 0.022 3.231 0.034 3.231 0.046 C 3.232 0.071 3.252 0.091 3.277 0.09 C 3.302 0.09 3.322 0.069 3.322 0.044 C 3.321 0.019 3.301 0 3.276 0 M 0.044 0 C 0.032 0 0.021 0.005 0.012 0.014 C 0.004 0.022 0 0.034 0 0.046 C 0 0.065 0.011 0.081 0.028 0.088 C 0.045 0.095 0.065 0.091 0.078 0.078 C 0.09 0.065 0.094 0.045 0.087 0.028 C 0.079 0.011 0.063 0.001 0.044 0.001 M 3.276 2.769 C 3.264 2.769 3.252 2.774 3.244 2.783 C 3.235 2.791 3.231 2.803 3.231 2.815 C 3.232 2.84 3.252 2.86 3.277 2.86 C 3.302 2.859 3.322 2.838 3.322 2.813 C 3.321 2.788 3.301 2.769 3.276 2.769 M 0.044 2.769 C 0.032 2.769 0.021 2.774 0.012 2.783 C 0.004 2.791 0 2.803 0 2.815 C 0 2.834 0.011 2.851 0.028 2.859 C 0.046 2.866 0.066 2.862 0.079 2.848 C 0.092 2.835 0.096 2.815 0.088 2.797 C 0.081 2.78 0.063 2.769 0.044 2.77 M 3.276 5.539 C 3.264 5.539 3.252 5.544 3.244 5.553 C 3.235 5.562 3.231 5.573 3.231 5.585 C 3.232 5.604 3.243 5.62 3.26 5.626 C 3.277 5.633 3.296 5.629 3.309 5.616 C 3.321 5.602 3.324 5.583 3.317 5.567 C 3.309 5.551 3.293 5.54 3.276 5.539 M 0.044 5.539 C 0.032 5.539 0.021 5.544 0.012 5.553 C 0.004 5.562 0 5.573 0 5.585 C 0.001 5.61 0.021 5.63 0.046 5.63 C 0.071 5.629 0.091 5.609 0.09 5.584 C 0.09 5.559 0.069 5.539 0.044 5.539" fill="transparent" height="6.584722656061501px" id="EuTe1biVI" stroke-dasharray="" stroke-linecap="round" stroke-linejoin="round" stroke-width="var(--hqwsut, 1)" stroke="var(--iuf2md, var(--token-57926c2e-1b32-46f0-b1a4-3565643d40b9, rgb(38, 113, 217)))" transform="translate(3.691 7.843)" width="11.146234816043943px"></path></g></svg>