<svg display="block" id="2003187277" role="presentation" viewBox="0 0 20 20" xmlns="http://www.w3.org/2000/svg"><path d="M 0 3 C 0 1.343 1.343 0 3 0 L 15 0 C 16.657 0 18 1.343 18 3 L 18 15 C 18 16.657 16.657 18 15 18 L 3 18 C 1.343 18 0 16.657 0 15 Z" fill="var(--1mtdjzs, undefined)" height="18px" id="XgppquNut" transform="translate(1 1)" width="18px"></path><path d="M 0 3 C 0 1.343 1.343 0 3 0 L 15 0 C 16.657 0 18 1.343 18 3 L 18 15 C 18 16.657 16.657 18 15 18 L 3 18 C 1.343 18 0 16.657 0 15 Z" fill="var(--iuf2md, var(--token-57926c2e-1b32-46f0-b1a4-3565643d40b9, rgb(38, 113, 217)))" height="18px" id="WJkFHI1Nj" transform="translate(1 1)" width="18px"></path><g d="M 0 4.552 L 3.313 8 L 11 0" fill="transparent" height="8px" id="wwfgVwFCY" transform="translate(4.5 5.5)" width="11px"><path d="M 0 4.552 L 3.313 8 L 11 0" fill="transparent" height="8px" id="mO353iq2M" stroke-dasharray="" stroke-linecap="butt" stroke-linejoin="miter" stroke-miterlimit="10" stroke-width="var(--kfmg5c, 2)" stroke="var(--1wk6mit, rgb(4,38,109))" width="11px"></path></g></svg>