<svg display="block" id="2077374613" role="presentation" viewBox="0 0 32 32" xmlns="http://www.w3.org/2000/svg"><g d="M 12 18 C 12 14.686 14.686 12 18 12 C 21.314 12 24 14.686 24 18 C 24 21.314 21.314 24 18 24 C 14.686 24 12 21.314 12 18 Z M 12.005 8.404 L 16.807 8.404 M 8.404 21.61 L 6.004 21.61 C 4.411 21.61 2.884 20.978 1.758 19.852 C 0.632 18.726 0 17.198 0 15.606 L 0 6.002 C 0 2.687 2.687 0 6.002 0 L 15.606 0 C 18.921 0 21.608 2.687 21.608 6.002 L 21.608 9.604 M 5.4 7.606 L 6.504 8.599 L 8.724 6.6 M 5.4 13.607 L 6.504 14.603 L 8.724 12.602 M 20.4 18.6 L 18 18.6 L 18 15.6" fill="transparent" height="24px" id="Z5ZLnHGwS" transform="translate(4.5 5)" width="24px"><path d="M 0 6 C 0 2.686 2.686 0 6 0 C 9.314 0 12 2.686 12 6 C 12 9.314 9.314 12 6 12 C 2.686 12 0 9.314 0 6 Z" fill="transparent" height="12px" id="rYN9ILq7z" stroke-dasharray="" stroke-linecap="round" stroke-linejoin="round" stroke-width="var(--hqwsut, 1)" stroke="var(--iuf2md, var(--token-57926c2e-1b32-46f0-b1a4-3565643d40b9, rgb(38, 113, 217)))" transform="translate(12 12)" width="12.000000000000057px"></path><path d="M 0 0 L 4.802 0" fill="transparent" height="1px" id="kqQuvbe0G" stroke-dasharray="" stroke-linecap="round" stroke-linejoin="round" stroke-width="var(--hqwsut, 1)" stroke="var(--iuf2md, var(--token-57926c2e-1b32-46f0-b1a4-3565643d40b9, rgb(38, 113, 217)))" transform="translate(12.005 8.404)" width="4.802400000000034px"></path><path d="M 8.404 21.61 L 6.004 21.61 C 4.411 21.61 2.884 20.978 1.758 19.852 C 0.632 18.726 0 17.198 0 15.606 L 0 6.002 C 0 2.687 2.687 0 6.002 0 L 15.606 0 C 18.921 0 21.608 2.687 21.608 6.002 L 21.608 9.604" fill="transparent" height="21.609600120149956px" id="Cvf6fuVWc" stroke-dasharray="" stroke-linecap="round" stroke-linejoin="round" stroke-width="var(--hqwsut, 1)" stroke="var(--iuf2md, var(--token-57926c2e-1b32-46f0-b1a4-3565643d40b9, rgb(38, 113, 217)))" transform="translate(0 0)" width="21.608400120150044px"></path><path d="M 0 1.006 L 1.104 1.999 L 3.324 0" fill="transparent" height="1.9991999999999734px" id="BqBQtEQgx" stroke-dasharray="" stroke-linecap="round" stroke-linejoin="round" stroke-width="var(--hqwsut, 1)" stroke="var(--iuf2md, var(--token-57926c2e-1b32-46f0-b1a4-3565643d40b9, rgb(38, 113, 217)))" transform="translate(5.4 6.6)" width="3.3240000000000123px"></path><path d="M 0 1.004 L 1.104 2 L 3.324 0" fill="transparent" height="2.00040000000007px" id="FaoU4L5dM" stroke-dasharray="" stroke-linecap="round" stroke-linejoin="round" stroke-width="var(--hqwsut, 1)" stroke="var(--iuf2md, var(--token-57926c2e-1b32-46f0-b1a4-3565643d40b9, rgb(38, 113, 217)))" transform="translate(5.4 12.602)" width="3.3240000000000123px"></path><path d="M 2.4 3 L 0 3 L 0 0" fill="transparent" height="3px" id="rmtiA0rEc" stroke-dasharray="" stroke-linecap="round" stroke-linejoin="round" stroke-width="var(--hqwsut, 1)" stroke="var(--iuf2md, var(--token-57926c2e-1b32-46f0-b1a4-3565643d40b9, rgb(38, 113, 217)))" transform="translate(18 15.6)" width="2.3999999999999773px"></path></g></svg>