<svg display="block" id="2317857127" role="presentation" viewBox="0 0 24 24" xmlns="http://www.w3.org/2000/svg"><g d="M 9 4.002 C 9 1.792 10.792 0 13.002 0 C 15.212 0 17.004 1.792 17.004 4.002 C 17.004 6.212 15.212 8.004 13.002 8.004 C 10.792 8.004 9 6.212 9 4.002 Z M 18.008 9.003 L 15.835 6.83 M 13.006 19.007 L 15.006 19.007 C 15.802 19.007 16.566 18.691 17.129 18.128 C 17.692 17.565 18.008 16.801 18.008 16.005 L 18.008 13.005 M 0 9.003 L 0 5.001 C 0 4.205 0.316 3.441 0.879 2.879 C 1.442 2.316 2.206 2 3.002 2 L 5.002 2 M 0 15.255 L 3.001 15.255 L 3.001 19.007 L 0 19.007 Z M 3.002 11.003 L 6.003 11.003 L 6.003 19.006 L 3.002 19.006 Z M 6.003 13.254 L 9.004 13.254 L 9.004 19.006 L 6.003 19.006 Z" fill="transparent" height="19.00700028134918px" id="b2J3TW4eB" transform="translate(3 2)" width="18.008000038146974px"><path d="M 0 4.002 C 0 1.792 1.792 0 4.002 0 C 6.212 0 8.004 1.792 8.004 4.002 C 8.004 6.212 6.212 8.004 4.002 8.004 C 1.792 8.004 0 6.212 0 4.002 Z" fill="transparent" height="8.004000000000019px" id="JH4ityiKA" stroke-dasharray="" stroke-linecap="round" stroke-linejoin="round" stroke-width="var(--hqwsut, 1)" stroke="var(--iuf2md, var(--token-57926c2e-1b32-46f0-b1a4-3565643d40b9, rgb(38, 113, 217)))" transform="translate(9 0)" width="8.004000000000019px"></path><path d="M 18.008 7.003 L 15.835 4.83 M 13.006 17.007 L 15.006 17.007 C 15.802 17.007 16.566 16.691 17.129 16.128 C 17.692 15.565 18.008 14.801 18.008 14.005 L 18.008 11.005 M 0 7.003 L 0 3.001 C 0 2.205 0.316 1.441 0.879 0.879 C 1.442 0.316 2.206 0 3.002 0 L 5.002 0 M 0 13.255 L 3.001 13.255 L 3.001 17.007 L 0 17.007 Z M 3.002 9.003 L 6.003 9.003 L 6.003 17.006 L 3.002 17.006 Z M 6.003 11.254 L 9.004 11.254 L 9.004 17.006 L 6.003 17.006 Z" fill="transparent" height="17.007000281349182px" id="XpMQ3dvKa" stroke-dasharray="" stroke-linecap="round" stroke-linejoin="round" stroke-width="var(--hqwsut, 1)" stroke="var(--iuf2md, var(--token-57926c2e-1b32-46f0-b1a4-3565643d40b9, rgb(38, 113, 217)))" transform="translate(0 2)" width="18.008000038146974px"></path></g></svg>