<svg display="block" id="2569995281" role="presentation" viewBox="0 0 24 24" xmlns="http://www.w3.org/2000/svg"><path d="M 13.24 0 L 13.24 0.743 C 13.24 0.846 13.199 0.944 13.127 1.017 C 13.054 1.089 12.956 1.13 12.853 1.13 L 8.207 1.13 C 8.105 1.129 8.007 1.088 7.935 1.016 C 7.864 0.943 7.823 0.845 7.823 0.743 L 7.823 0 L 0.49 0 C 0.359 0.004 0.234 0.06 0.142 0.154 C 0.051 0.249 0 0.375 0 0.507 L 0 1.13 C 0 1.345 0.042 1.559 0.125 1.758 C 0.207 1.957 0.328 2.137 0.48 2.29 C 0.633 2.442 0.813 2.563 1.012 2.645 C 1.211 2.728 1.425 2.77 1.64 2.77 L 19.423 2.77 C 19.639 2.77 19.852 2.728 20.05 2.645 C 20.249 2.563 20.43 2.442 20.582 2.289 C 20.734 2.137 20.854 1.956 20.936 1.757 C 21.018 1.558 21.06 1.345 21.06 1.13 L 21.06 0.507 C 21.06 0.44 21.048 0.374 21.023 0.313 C 20.998 0.252 20.961 0.196 20.914 0.149 C 20.867 0.101 20.811 0.064 20.75 0.039 C 20.689 0.013 20.623 0 20.557 0 Z" fill="transparent" height="2.769999999999982px" id="aZdkAknjC" stroke-dasharray="" stroke-linecap="round" stroke-linejoin="round" stroke-width="var(--hqwsut, 1)" stroke="var(--iuf2md, var(--token-57926c2e-1b32-46f0-b1a4-3565643d40b9, rgb(38, 113, 217)))" transform="translate(1.5 18.73)" width="21.060012457370135px"></path><path d="M 19.457 1.893 L 19.457 13.86 L 12.433 13.86 L 12.433 14.603 C 12.434 14.654 12.425 14.704 12.406 14.751 C 12.388 14.798 12.36 14.84 12.324 14.876 C 12.289 14.912 12.247 14.941 12.2 14.96 C 12.154 14.98 12.104 14.99 12.053 14.99 L 7.407 14.99 C 7.304 14.99 7.206 14.949 7.133 14.877 C 7.061 14.804 7.02 14.706 7.02 14.603 L 7.02 13.86 L 0 13.86 L 0 1.893 C 0 1.645 0.048 1.399 0.143 1.17 C 0.237 0.94 0.376 0.732 0.551 0.556 C 0.726 0.38 0.935 0.241 1.164 0.145 C 1.393 0.05 1.638 0 1.887 0 L 5.1 0 L 5.1 2.057 L 7.287 2.057 C 7.456 2.057 7.623 2.099 7.771 2.179 C 7.92 2.259 8.047 2.375 8.14 2.517 L 8.473 3.013 C 8.567 3.153 8.693 3.268 8.841 3.348 C 8.989 3.428 9.155 3.47 9.323 3.47 L 14.473 3.47 L 14.473 0 L 17.563 0 C 18.065 0 18.547 0.199 18.902 0.555 C 19.257 0.91 19.457 1.391 19.457 1.893 Z" fill="transparent" height="14.990006666666659px" id="K2EQ49DMC" stroke-dasharray="" stroke-linecap="round" stroke-linejoin="round" stroke-width="var(--hqwsut, 1)" stroke="var(--iuf2md, var(--token-57926c2e-1b32-46f0-b1a4-3565643d40b9, rgb(38, 113, 217)))" transform="translate(2.303 4.87)" width="19.456656303315444px"></path><path d="M 12.5 2.433 L 12.5 8.147 C 12.5 8.281 12.474 8.413 12.422 8.537 C 12.371 8.661 12.296 8.773 12.201 8.868 C 12.107 8.963 11.994 9.038 11.87 9.089 C 11.747 9.14 11.614 9.167 11.48 9.167 L 1.033 9.167 C 0.898 9.168 0.764 9.143 0.639 9.093 C 0.514 9.042 0.4 8.968 0.303 8.873 C 0.207 8.778 0.131 8.665 0.079 8.54 C 0.027 8.416 0 8.282 0 8.147 L 0 1.02 C 0 0.886 0.026 0.753 0.077 0.629 C 0.128 0.505 0.203 0.393 0.298 0.298 C 0.393 0.203 0.505 0.128 0.629 0.077 C 0.753 0.026 0.886 0 1.02 0 L 3.743 0 C 3.913 -0.002 4.08 0.039 4.229 0.12 C 4.379 0.2 4.505 0.317 4.597 0.46 L 4.93 0.95 C 5.023 1.092 5.15 1.208 5.299 1.288 C 5.447 1.368 5.614 1.41 5.783 1.41 L 11.48 1.41 C 11.751 1.411 12.01 1.519 12.201 1.711 C 12.393 1.903 12.5 2.163 12.5 2.433 Z" fill="transparent" height="9.16682028698371px" id="LqCzEX75a" stroke-dasharray="" stroke-linecap="round" stroke-linejoin="round" stroke-width="var(--hqwsut, 1)" stroke="var(--iuf2md, var(--token-57926c2e-1b32-46f0-b1a4-3565643d40b9, rgb(38, 113, 217)))" transform="translate(5.833 6.93)" width="12.499998809299273px"></path><path d="M 1.22 2.62 L 0 1.31 L 1.22 0" fill="transparent" height="2.6200000000000045px" id="Y9FpMqPRz" stroke-dasharray="" stroke-linecap="round" stroke-linejoin="round" stroke-width="var(--hqwsut, 1)" stroke="var(--iuf2md, var(--token-57926c2e-1b32-46f0-b1a4-3565643d40b9, rgb(38, 113, 217)))" transform="translate(9.043 10.72)" width="1.2200000000000077px"></path><path d="M 0 2.62 L 1.22 1.31 L 0 0" fill="transparent" height="2.6200000000000045px" id="c_vFfowni" stroke-dasharray="" stroke-linecap="round" stroke-linejoin="round" stroke-width="var(--hqwsut, 1)" stroke="var(--iuf2md, var(--token-57926c2e-1b32-46f0-b1a4-3565643d40b9, rgb(38, 113, 217)))" transform="translate(13.9 10.72)" width="1.21999999999999px"></path><path d="M 0.747 0 L 0 2.62" fill="transparent" height="2.6200000000000045px" id="dMxK3YDsB" stroke-dasharray="" stroke-linecap="round" stroke-linejoin="round" stroke-width="var(--hqwsut, 1)" stroke="var(--iuf2md, var(--token-57926c2e-1b32-46f0-b1a4-3565643d40b9, rgb(38, 113, 217)))" transform="translate(11.71 10.72)" width="1px"></path><path d="M 9.373 0.827 L 9.373 5.827 L 4.213 5.827 C 4.045 5.826 3.879 5.784 3.731 5.705 C 3.583 5.625 3.457 5.51 3.363 5.37 L 3.03 4.873 C 2.937 4.732 2.81 4.616 2.662 4.535 C 2.513 4.455 2.346 4.413 2.177 4.413 L 0 4.413 L 0 0.827 C 0 0.607 0.087 0.397 0.242 0.242 C 0.397 0.087 0.607 0 0.827 0 L 8.547 0 C 8.766 0 8.976 0.087 9.131 0.242 C 9.286 0.397 9.373 0.607 9.373 0.827 Z" fill="transparent" height="5.8266666666666715px" id="eieUiS_T4" stroke-dasharray="" stroke-linecap="round" stroke-linejoin="round" stroke-width="var(--hqwsut, 1)" stroke="var(--iuf2md, var(--token-57926c2e-1b32-46f0-b1a4-3565643d40b9, rgb(38, 113, 217)))" transform="translate(7.403 2.5)" width="9.373333333333335px"></path></svg>