<svg display="block" id="2686675183" role="presentation" viewBox="0 0 24 24" xmlns="http://www.w3.org/2000/svg"><path d="M 1.183 2.537 L 0 1.267 L 1.183 0" fill="transparent" height="2.5366933333333463px" id="j36BchKeX" stroke-dasharray="" stroke-linecap="round" stroke-linejoin="round" stroke-width="var(--hqwsut, 1)" stroke="var(--iuf2md, var(--token-57926c2e-1b32-46f0-b1a4-3565643d40b9, rgb(38, 113, 217)))" transform="translate(9.107 5.39)" width="1.1833333333333371px"></path><path d="M 0 2.537 L 1.18 1.267 L 0 0" fill="transparent" height="2.5366933333333463px" id="R1sFUIAxA" stroke-dasharray="" stroke-linecap="round" stroke-linejoin="round" stroke-width="var(--hqwsut, 1)" stroke="var(--iuf2md, var(--token-57926c2e-1b32-46f0-b1a4-3565643d40b9, rgb(38, 113, 217)))" transform="translate(13.81 5.39)" width="1.1800000000000068px"></path><path d="M 0.72 0 L 0 2.54" fill="transparent" height="2.539986666666664px" id="aasdA3gKs" stroke-dasharray="" stroke-linecap="round" stroke-linejoin="round" stroke-width="var(--hqwsut, 1)" stroke="var(--iuf2md, var(--token-57926c2e-1b32-46f0-b1a4-3565643d40b9, rgb(38, 113, 217)))" transform="translate(11.69 5.387)" width="1px"></path><path d="M 10.373 5.189 C 10.374 4.313 10.152 3.45 9.729 2.683 C 9.306 1.915 8.695 1.267 7.953 0.799 C 7.212 0.332 6.364 0.06 5.489 0.009 C 4.613 -0.042 3.74 0.129 2.949 0.508 C 2.158 0.886 1.476 1.458 0.966 2.172 C 0.457 2.885 0.136 3.716 0.035 4.587 C -0.067 5.457 0.054 6.34 0.386 7.151 C 0.718 7.962 1.251 8.676 1.933 9.226 C 2.219 9.458 2.449 9.75 2.607 10.083 C 2.766 10.415 2.847 10.778 2.847 11.146 L 2.847 13.389 C 2.847 13.735 2.984 14.067 3.228 14.311 C 3.473 14.555 3.804 14.693 4.15 14.693 L 6.223 14.693 C 6.569 14.693 6.9 14.555 7.145 14.311 C 7.389 14.067 7.527 13.735 7.527 13.389 L 7.527 11.146 C 7.527 10.776 7.61 10.411 7.77 10.077 C 7.93 9.743 8.162 9.449 8.45 9.216 C 9.051 8.731 9.536 8.118 9.869 7.421 C 10.202 6.724 10.374 5.962 10.373 5.189 Z" fill="transparent" height="14.692803774388754px" id="MbLc4waH4" stroke-dasharray="" stroke-linecap="round" stroke-linejoin="round" stroke-width="var(--hqwsut, 1)" stroke="var(--iuf2md, var(--token-57926c2e-1b32-46f0-b1a4-3565643d40b9, rgb(38, 113, 217)))" transform="translate(6.863 1.501)" width="10.373354707096572px"></path><path d="M 0 0 L 4.68 0" fill="transparent" height="1px" id="Itckb0Q33" stroke-dasharray="" stroke-linecap="round" stroke-linejoin="round" stroke-width="var(--hqwsut, 1)" stroke="var(--iuf2md, var(--token-57926c2e-1b32-46f0-b1a4-3565643d40b9, rgb(38, 113, 217)))" transform="translate(9.71 14.257)" width="4.680000000000007px"></path><path d="M 0 0 L 4.68 0" fill="transparent" height="1px" id="vrh7r29QR" stroke-dasharray="" stroke-linecap="round" stroke-linejoin="round" stroke-width="var(--hqwsut, 1)" stroke="var(--iuf2md, var(--token-57926c2e-1b32-46f0-b1a4-3565643d40b9, rgb(38, 113, 217)))" transform="translate(9.71 12.607)" width="4.680000000000007px"></path><path d="M 0 0 L 0 3.78" fill="transparent" height="3.780000000000012px" id="qhL5i0qcX" stroke-dasharray="" stroke-linecap="round" stroke-linejoin="round" stroke-width="var(--hqwsut, 1)" stroke="var(--iuf2md, var(--token-57926c2e-1b32-46f0-b1a4-3565643d40b9, rgb(38, 113, 217)))" transform="translate(12.05 16.193)" width="1px"></path><path d="M 1.243 2.487 C 1.93 2.487 2.487 1.93 2.487 1.243 C 2.487 0.557 1.93 0 1.243 0 C 0.557 0 0 0.557 0 1.243 C 0 1.93 0.557 2.487 1.243 2.487 Z" fill="transparent" height="2.486666666666679px" id="lZKR1W1Nq" stroke-dasharray="" stroke-linecap="round" stroke-linejoin="round" stroke-width="var(--hqwsut, 1)" stroke="var(--iuf2md, var(--token-57926c2e-1b32-46f0-b1a4-3565643d40b9, rgb(38, 113, 217)))" transform="translate(10.807 19.973)" width="2.4866666666666593px"></path><path d="M 1.243 2.487 C 1.93 2.487 2.487 1.93 2.487 1.243 C 2.487 0.557 1.93 0 1.243 0 C 0.557 0 0 0.557 0 1.243 C 0 1.93 0.557 2.487 1.243 2.487 Z" fill="transparent" height="2.486666666666679px" id="Grt147U6s" stroke-dasharray="" stroke-linecap="round" stroke-linejoin="round" stroke-width="var(--hqwsut, 1)" stroke="var(--iuf2md, var(--token-57926c2e-1b32-46f0-b1a4-3565643d40b9, rgb(38, 113, 217)))" transform="translate(4.833 17.49)" width="2.48666666666666px"></path><path d="M 2.803 0 L 1.963 2.893 L 0 2.893" fill="transparent" height="2.8933333333333167px" id="LtpgSGcw0" stroke-dasharray="" stroke-linecap="round" stroke-linejoin="round" stroke-width="var(--hqwsut, 1)" stroke="var(--iuf2md, var(--token-57926c2e-1b32-46f0-b1a4-3565643d40b9, rgb(38, 113, 217)))" transform="translate(7.317 15.84)" width="2.803333333333341px"></path><path d="M 1.243 2.487 C 1.93 2.487 2.487 1.93 2.487 1.243 C 2.487 0.557 1.93 0 1.243 0 C 0.557 0 0 0.557 0 1.243 C 0 1.93 0.557 2.487 1.243 2.487 Z" fill="transparent" height="2.486666666666679px" id="OFDoLIRM4" stroke-dasharray="" stroke-linecap="round" stroke-linejoin="round" stroke-width="var(--hqwsut, 1)" stroke="var(--iuf2md, var(--token-57926c2e-1b32-46f0-b1a4-3565643d40b9, rgb(38, 113, 217)))" transform="translate(16.783 17.49)" width="2.486666666666679px"></path><path d="M 0 0 L 0.84 2.897 L 2.8 2.897" fill="transparent" height="2.8966666666666825px" id="X23tEVW9x" stroke-dasharray="" stroke-linecap="round" stroke-linejoin="round" stroke-width="var(--hqwsut, 1)" stroke="var(--iuf2md, var(--token-57926c2e-1b32-46f0-b1a4-3565643d40b9, rgb(38, 113, 217)))" transform="translate(13.983 15.837)" width="2.79999999999999px"></path></svg>