<svg display="block" id="3045418666" role="presentation" viewBox="0 0 24 24" xmlns="http://www.w3.org/2000/svg"><g d="M 0 1.8 L 0 1.8 C 0 2.4 0.3 2.9 0.8 3.3 L 6.8 7.4 C 8.2 8.3 9.9 8.3 11.3 7.4 L 17.3 3.4 C 17.7 2.9 18 2.4 18 1.8 L 18 1.8 C 18 0.8 17.2 0 16.2 0 L 1.8 0 C 0.8 0 0 0.8 0 1.8 Z M 0 2 L 0 12 C 0 13.1 0.9 14 2 14 L 16 14 C 17.1 14 18 13.1 18 12 L 18 2 M 0.588 13.412 L 6.682 7.318 M 11.36 7.36 L 17.412 13.412" fill="transparent" height="14px" id="IyQqdN8Fr" transform="translate(3 5)" width="18px"><path d="M 0 1.8 L 0 1.8 C 0 2.4 0.3 2.9 0.8 3.3 L 6.8 7.4 C 8.2 8.3 9.9 8.3 11.3 7.4 L 17.3 3.4 C 17.7 2.9 18 2.4 18 1.8 L 18 1.8 C 18 0.8 17.2 0 16.2 0 L 1.8 0 C 0.8 0 0 0.8 0 1.8 Z" fill="transparent" height="8.07499999999996px" id="CXykuxgYi" stroke-dasharray="" stroke-linecap="round" stroke-linejoin="round" stroke-width="var(--hqwsut, 1)" stroke="var(--iuf2md, var(--token-57926c2e-1b32-46f0-b1a4-3565643d40b9, rgb(38, 113, 217)))" width="18px"></path><path d="M 0 0 L 0 10 C 0 11.1 0.9 12 2 12 L 16 12 C 17.1 12 18 11.1 18 10 L 18 0 M 0.588 11.412 L 6.682 5.318 M 11.36 5.36 L 17.412 11.412" fill="transparent" height="12px" id="Yw_3jeo_r" stroke-dasharray="" stroke-linecap="round" stroke-linejoin="round" stroke-width="var(--hqwsut, 1)" stroke="var(--iuf2md, var(--token-57926c2e-1b32-46f0-b1a4-3565643d40b9, rgb(38, 113, 217)))" transform="translate(0 2)" width="18px"></path></g></svg>