<svg display="block" id="3086049569" role="presentation" viewBox="0 0 24 24" xmlns="http://www.w3.org/2000/svg"><g d="M 8 11.111 L 8 11.111 C 6.106 11.111 4.571 9.619 4.571 7.778 L 4.571 7.778 C 4.571 5.937 6.106 4.444 8 4.444 L 8 4.444 C 9.894 4.444 11.429 5.937 11.429 7.778 L 11.429 7.778 C 11.429 9.619 9.894 11.111 8 11.111 Z M 8 20 C 8 20 0 13.611 0 7.778 C 0 3.482 3.582 0 8 0 C 12.418 0 16 3.482 16 7.778 C 16 13.611 8 20 8 20 Z" fill="transparent" height="20px" id="DD7UKOcbO" transform="translate(4 2)" width="16px"><path d="M 3.429 6.667 L 3.429 6.667 C 1.535 6.667 0 5.174 0 3.333 L 0 3.333 C 0 1.492 1.535 0 3.429 0 L 3.429 0 C 5.322 0 6.857 1.492 6.857 3.333 L 6.857 3.333 C 6.857 5.174 5.322 6.667 3.429 6.667 Z" fill="transparent" height="6.666666666666629px" id="KXPZq1ohT" stroke-dasharray="" stroke-linecap="round" stroke-linejoin="round" stroke-width="var(--hqwsut, 1)" stroke="var(--iuf2md, var(--token-57926c2e-1b32-46f0-b1a4-3565643d40b9, rgb(38, 113, 217)))" transform="translate(4.571 4.444)" width="6.85714285714289px"></path><path d="M 8 20 C 8 20 0 13.611 0 7.778 C 0 3.482 3.582 0 8 0 C 12.418 0 16 3.482 16 7.778 C 16 13.611 8 20 8 20 Z" fill="transparent" height="20px" id="r1K073GLY" stroke-dasharray="" stroke-linecap="round" stroke-linejoin="round" stroke-width="var(--hqwsut, 1)" stroke="var(--iuf2md, var(--token-57926c2e-1b32-46f0-b1a4-3565643d40b9, rgb(38, 113, 217)))" width="16px"></path></g></svg>