<svg display="block" id="3588559759" role="presentation" viewBox="0 0 24 24" xmlns="http://www.w3.org/2000/svg"><g d="M 9.5 14.752 L 12.501 14.752 L 12.501 18.504 L 9.5 18.504 Z M 12.501 10.5 L 15.502 10.5 L 15.502 18.503 L 12.501 18.503 Z M 17.008 7.004 L 17.008 2.001 C 17.008 1.47 16.798 0.961 16.423 0.586 C 16.047 0.211 15.539 0 15.008 0 L 2.001 0 C 1.47 0 0.961 0.21 0.586 0.585 C 0.211 0.961 0 1.469 0 2 L 0 14.006 C 0 15.111 0.895 16.006 2 16.006 L 6.003 16.006 M 6.254 8.004 L 9.004 8.004 M 6.254 4.128 L 13.006 4.128 M 3.625 8.626 C 3.694 8.626 3.75 8.57 3.75 8.501 C 3.75 8.432 3.694 8.376 3.625 8.376 C 3.556 8.376 3.5 8.432 3.5 8.501 C 3.5 8.57 3.556 8.626 3.625 8.626 M 3.625 4.75 C 3.694 4.75 3.75 4.694 3.75 4.625 C 3.75 4.556 3.694 4.5 3.625 4.5 C 3.556 4.5 3.5 4.556 3.5 4.625 C 3.5 4.694 3.556 4.75 3.625 4.75 M 15.505 12.753 L 18.506 12.753 L 18.506 18.505 L 15.505 18.505 Z" fill="transparent" height="18.505000259399417px" id="SavZNDBbT" transform="translate(2.5 2.5)" width="18.50600011444092px"><path d="M 0 4.252 L 3.001 4.252 L 3.001 8.004 L 0 8.004 Z M 3.001 0 L 6.002 0 L 6.002 8.003 L 3.001 8.003 Z" fill="transparent" height="8.003999855041503px" id="Uu4k6xyFV" stroke-dasharray="" stroke-linecap="round" stroke-linejoin="round" stroke-width="var(--hqwsut, 1)" stroke="var(--iuf2md, var(--token-57926c2e-1b32-46f0-b1a4-3565643d40b9, rgb(38, 113, 217)))" transform="translate(9.5 10.5)" width="6.001999927520751px"></path><path d="M 17.008 7.004 L 17.008 2.001 C 17.008 1.47 16.798 0.961 16.423 0.586 C 16.047 0.211 15.539 0 15.008 0 L 2.001 0 C 1.47 0 0.961 0.21 0.586 0.585 C 0.211 0.961 0 1.469 0 2 L 0 14.006 C 0 15.111 0.895 16.006 2 16.006 L 6.003 16.006 M 6.254 8.004 L 9.004 8.004 M 6.254 4.128 L 13.006 4.128" fill="transparent" height="16.006000250361794px" id="SUQr732fu" stroke-dasharray="" stroke-linecap="round" stroke-linejoin="round" stroke-width="var(--hqwsut, 1)" stroke="var(--iuf2md, var(--token-57926c2e-1b32-46f0-b1a4-3565643d40b9, rgb(38, 113, 217)))" transform="translate(0 0)" width="17.00800025036181px"></path><path d="M 0.125 4.126 C 0.194 4.126 0.25 4.07 0.25 4.001 C 0.25 3.932 0.194 3.876 0.125 3.876 C 0.056 3.876 0 3.932 0 4.001 C 0 4.07 0.056 4.126 0.125 4.126 M 0.125 0.25 C 0.194 0.25 0.25 0.194 0.25 0.125 C 0.25 0.056 0.194 0 0.125 0 C 0.056 0 0 0.056 0 0.125 C 0 0.194 0.056 0.25 0.125 0.25 M 12.005 8.253 L 15.006 8.253 L 15.006 14.005 L 12.005 14.005 Z" fill="transparent" height="14.005000259399415px" id="ChG54Qf3I" stroke-dasharray="" stroke-linecap="round" stroke-linejoin="round" stroke-width="var(--hqwsut, 1)" stroke="var(--iuf2md, var(--token-57926c2e-1b32-46f0-b1a4-3565643d40b9, rgb(38, 113, 217)))" transform="translate(3.5 4.5)" width="15.00600011444092px"></path></g></svg>