<svg display="block" id="3775939034" role="presentation" viewBox="0 0 32 32" xmlns="http://www.w3.org/2000/svg"><g d="M 2.606 23.467 L 20.86 23.467 C 21.552 23.467 22.215 23.192 22.704 22.703 C 23.193 22.214 23.467 21.551 23.467 20.859 L 23.467 2.607 C 23.467 1.916 23.193 1.253 22.704 0.764 C 22.215 0.275 21.552 0 20.86 0 L 6.294 0 C 5.603 0 4.941 0.274 4.452 0.762 L 0.764 4.45 C 0.274 4.94 -0.001 5.604 0 6.296 L 0 20.859 C 0 22.299 1.167 23.465 2.606 23.465 Z M 7.17 0.652 L 7.17 5.866 C 7.17 6.586 6.587 7.169 5.867 7.169 L 0.652 7.169 M 6.517 12.709 L 10.428 12.709 L 10.428 17.598 L 6.517 17.598 Z M 10.429 7.169 L 14.34 7.169 L 14.34 17.598 L 10.429 17.598 Z M 14.34 10.103 L 18.251 10.103 L 18.251 17.598 L 14.34 17.598 Z" fill="transparent" height="23.466666666666818px" id="m1AAD1fKa" transform="translate(4.4 4.133)" width="23.466666666666757px"><path d="M 2.606 23.467 L 20.86 23.467 C 21.552 23.467 22.215 23.192 22.704 22.703 C 23.193 22.214 23.467 21.551 23.467 20.859 L 23.467 2.607 C 23.467 1.916 23.193 1.253 22.704 0.764 C 22.215 0.275 21.552 0 20.86 0 L 6.294 0 C 5.603 0 4.941 0.274 4.452 0.762 L 0.764 4.45 C 0.274 4.94 -0.001 5.604 0 6.296 L 0 20.859 C 0 22.299 1.167 23.465 2.606 23.465 Z" fill="transparent" height="23.466666666666818px" id="oXhdLKqwg" stroke-dasharray="" stroke-linecap="round" stroke-linejoin="round" stroke-width="var(--hqwsut, 1)" stroke="var(--iuf2md, var(--token-57926c2e-1b32-46f0-b1a4-3565643d40b9, rgb(38, 113, 217)))" transform="translate(0 0)" width="23.46666666666676px"></path><path d="M 6.519 0 L 6.519 5.215 C 6.519 5.934 5.935 6.518 5.215 6.518 L 0 6.518 M 5.866 12.057 L 9.777 12.057 L 9.777 16.946 L 5.866 16.946 Z M 9.778 6.518 L 13.689 6.518 L 13.689 16.946 L 9.778 16.946 Z M 13.689 9.451 L 17.6 9.451 L 17.6 16.946 L 13.689 16.946 Z" fill="transparent" height="16.94619376734925px" id="jYlkyIhEs" stroke-dasharray="" stroke-linecap="round" stroke-linejoin="round" stroke-width="var(--hqwsut, 1)" stroke="var(--iuf2md, var(--token-57926c2e-1b32-46f0-b1a4-3565643d40b9, rgb(38, 113, 217)))" transform="translate(0.652 0.652)" width="17.599672883859995px"></path></g></svg>