<svg display="block" id="3985163807" role="presentation" viewBox="0 0 24 24" xmlns="http://www.w3.org/2000/svg"><path d="M 8.02 0 L 0.48 0 C 0.215 0 0 0.215 0 0.48 L 0 2.683 C 0 2.948 0.215 3.163 0.48 3.163 L 8.02 3.163 C 8.285 3.163 8.5 2.948 8.5 2.683 L 8.5 0.48 C 8.5 0.215 8.285 0 8.02 0 Z" fill="transparent" height="3.163333333333336px" id="LcJxsjk2f" stroke-dasharray="" stroke-linecap="round" stroke-linejoin="round" stroke-width="var(--hqwsut, 1)" stroke="var(--iuf2md, var(--token-57926c2e-1b32-46f0-b1a4-3565643d40b9, rgb(38, 113, 217)))" transform="translate(7.657 2.167)" width="8.499999999999998px"></path><path d="M 8.02 0 L 0.48 0 C 0.215 0 0 0.215 0 0.48 L 0 2.683 C 0 2.948 0.215 3.163 0.48 3.163 L 8.02 3.163 C 8.285 3.163 8.5 2.948 8.5 2.683 L 8.5 0.48 C 8.5 0.215 8.285 0 8.02 0 Z" fill="transparent" height="3.1633333333333358px" id="AsKK6pNJJ" stroke-dasharray="" stroke-linecap="round" stroke-linejoin="round" stroke-width="var(--hqwsut, 1)" stroke="var(--iuf2md, var(--token-57926c2e-1b32-46f0-b1a4-3565643d40b9, rgb(38, 113, 217)))" transform="translate(7.657 7.577)" width="8.499999999999998px"></path><path d="M 8.02 0 L 0.48 0 C 0.215 0 0 0.215 0 0.48 L 0 2.683 C 0 2.948 0.215 3.163 0.48 3.163 L 8.02 3.163 C 8.285 3.163 8.5 2.948 8.5 2.683 L 8.5 0.48 C 8.5 0.215 8.285 0 8.02 0 Z" fill="transparent" height="3.1633333333333358px" id="V6HHuu6pp" stroke-dasharray="" stroke-linecap="round" stroke-linejoin="round" stroke-width="var(--hqwsut, 1)" stroke="var(--iuf2md, var(--token-57926c2e-1b32-46f0-b1a4-3565643d40b9, rgb(38, 113, 217)))" transform="translate(7.657 12.987)" width="8.499999999999998px"></path><path d="M 8.02 0 L 0.48 0 C 0.215 0 0 0.215 0 0.48 L 0 2.683 C 0 2.948 0.215 3.163 0.48 3.163 L 8.02 3.163 C 8.285 3.163 8.5 2.948 8.5 2.683 L 8.5 0.48 C 8.5 0.215 8.285 0 8.02 0 Z" fill="transparent" height="3.163333333333334px" id="A03FzNLsR" stroke-dasharray="" stroke-linecap="round" stroke-linejoin="round" stroke-width="var(--hqwsut, 1)" stroke="var(--iuf2md, var(--token-57926c2e-1b32-46f0-b1a4-3565643d40b9, rgb(38, 113, 217)))" transform="translate(7.657 18.393)" width="8.499999999999998px"></path><path d="M 0 0 L 3.447 0 C 4.164 0.001 4.852 0.286 5.358 0.794 C 5.865 1.301 6.15 1.989 6.15 2.707 C 6.151 3.063 6.082 3.415 5.947 3.744 C 5.812 4.073 5.613 4.373 5.362 4.625 C 5.111 4.877 4.812 5.077 4.484 5.213 C 4.155 5.35 3.803 5.42 3.447 5.42 L 0 5.42" fill="transparent" height="5.419999999999996px" id="HHXcJcSMA" stroke-dasharray="" stroke-linecap="round" stroke-linejoin="round" stroke-width="var(--hqwsut, 1)" stroke="var(--iuf2md, var(--token-57926c2e-1b32-46f0-b1a4-3565643d40b9, rgb(38, 113, 217)))" transform="translate(16.167 3.747)" width="6.15001896081064px"></path><path d="M 0 0 L 3.447 0 C 4.164 0 4.851 0.285 5.358 0.792 C 5.865 1.299 6.15 1.986 6.15 2.703 C 6.15 3.421 5.865 4.109 5.358 4.616 C 4.852 5.124 4.164 5.409 3.447 5.41 L 0 5.41" fill="transparent" height="5.410000000000007px" id="yku7E3Q5P" stroke-dasharray="" stroke-linecap="round" stroke-linejoin="round" stroke-width="var(--hqwsut, 1)" stroke="var(--iuf2md, var(--token-57926c2e-1b32-46f0-b1a4-3565643d40b9, rgb(38, 113, 217)))" transform="translate(16.167 14.567)" width="6.150000000000016px"></path><path d="M 6.157 5.4 L 2.703 5.4 C 1.986 5.4 1.299 5.115 0.792 4.608 C 0.285 4.101 0 3.414 0 2.697 C 0.002 1.981 0.287 1.295 0.794 0.789 C 1.301 0.284 1.988 0 2.703 0 L 6.157 0" fill="transparent" height="5.400000000000015px" id="tdMwQAEN6" stroke-dasharray="" stroke-linecap="round" stroke-linejoin="round" stroke-width="var(--hqwsut, 1)" stroke="var(--iuf2md, var(--token-57926c2e-1b32-46f0-b1a4-3565643d40b9, rgb(38, 113, 217)))" transform="translate(1.5 9.167)" width="6.156666666666675px"></path><path d="M 1.143 2.287 L 0 1.143 L 1.143 0" fill="transparent" height="2.2866666666666724px" id="Z_89DOlsg" stroke-dasharray="" stroke-linecap="round" stroke-linejoin="round" stroke-width="var(--hqwsut, 1)" stroke="var(--iuf2md, var(--token-57926c2e-1b32-46f0-b1a4-3565643d40b9, rgb(38, 113, 217)))" transform="translate(17.813 8.013)" width="1.1433333333333167px"></path><path d="M 1.143 2.29 L 0 1.147 L 1.143 0" fill="transparent" height="2.2900000000000027px" id="KZJ56YI7I" stroke-dasharray="" stroke-linecap="round" stroke-linejoin="round" stroke-width="var(--hqwsut, 1)" stroke="var(--iuf2md, var(--token-57926c2e-1b32-46f0-b1a4-3565643d40b9, rgb(38, 113, 217)))" transform="translate(17.813 18.83)" width="1.1433333333333167px"></path><path d="M 0 0 L 1.147 1.143 L 0 2.287" fill="transparent" height="2.2866666666666724px" id="WWcoUJaah" stroke-dasharray="" stroke-linecap="round" stroke-linejoin="round" stroke-width="var(--hqwsut, 1)" stroke="var(--iuf2md, var(--token-57926c2e-1b32-46f0-b1a4-3565643d40b9, rgb(38, 113, 217)))" transform="translate(5.01 13.423)" width="1.1466666666666665px"></path></svg>