<svg display="block" id="4189361551" role="presentation" viewBox="0 0 32 32" xmlns="http://www.w3.org/2000/svg"><g d="M 15.2 7.644 L 15.2 5.096 L 12.667 5.096 M 2.252 0 L 18.015 0 C 19.258 0 20.267 1.14 20.267 2.548 L 20.267 20.385 C 20.267 21.793 19.258 22.933 18.015 22.933 L 2.252 22.933 C 1.008 22.933 0 21.793 0 20.385 L 0 2.548 C 0 1.14 1.008 0 2.252 0 Z M 5.067 13.378 L 15.2 13.378 M 5.067 17.837 L 10.133 17.837 M 15.2 5.096 L 11.4 8.919 L 7.962 6.37 L 5.067 8.919" fill="transparent" height="22.93333333333333px" id="LwBIpOLQ9" transform="translate(5.867 4.533)" width="20.266666666666666px"><path d="M 2.533 2.548 L 2.533 0 L 0 0" fill="transparent" height="2.5481481481481616px" id="MoL3Lw4z1" stroke-dasharray="" stroke-linecap="round" stroke-linejoin="round" stroke-width="var(--hqwsut, 1)" stroke="var(--iuf2md, var(--token-57926c2e-1b32-46f0-b1a4-3565643d40b9, rgb(38, 113, 217)))" transform="translate(12.667 5.096)" width="2.5333333333333314px"></path><path d="M 2.252 0 L 18.015 0 C 19.258 0 20.267 1.14 20.267 2.548 L 20.267 20.385 C 20.267 21.793 19.258 22.933 18.015 22.933 L 2.252 22.933 C 1.008 22.933 0 21.793 0 20.385 L 0 2.548 C 0 1.14 1.008 0 2.252 0 Z" fill="transparent" height="22.93333333333333px" id="dQtt41NlK" stroke-dasharray="" stroke-linecap="round" stroke-linejoin="round" stroke-width="var(--hqwsut, 1)" stroke="var(--iuf2md, var(--token-57926c2e-1b32-46f0-b1a4-3565643d40b9, rgb(38, 113, 217)))" transform="translate(0 0)" width="20.266666666666666px"></path><path d="M 0 8.281 L 10.133 8.281 M 0 12.741 L 5.067 12.741 M 10.133 0 L 6.333 3.822 L 2.896 1.274 L 0 3.822" fill="transparent" height="12.740739822387695px" id="N4xPhxkiV" stroke-dasharray="" stroke-linecap="round" stroke-linejoin="round" stroke-width="var(--hqwsut, 1)" stroke="var(--iuf2md, var(--token-57926c2e-1b32-46f0-b1a4-3565643d40b9, rgb(38, 113, 217)))" transform="translate(5.067 5.096)" width="10.133333333333333px"></path></g></svg>