<svg display="block" id="480559341" role="presentation" viewBox="0 0 24 24" xmlns="http://www.w3.org/2000/svg"><path d="M 2.09 4.18 C 3.244 4.18 4.18 3.244 4.18 2.09 C 4.18 0.936 3.244 0 2.09 0 C 0.936 0 0 0.936 0 2.09 C 0 3.244 0.936 4.18 2.09 4.18 Z" fill="transparent" height="4.179999999999987px" id="ZqIBHKI2z" stroke-dasharray="" stroke-linecap="round" stroke-linejoin="round" stroke-width="var(--hqwsut, 1)" stroke="var(--iuf2md, var(--token-57926c2e-1b32-46f0-b1a4-3565643d40b9, rgb(38, 113, 217)))" transform="translate(3.103 1.5)" width="4.180000000000007px"></path><path d="M 1.477 2.953 C 2.292 2.953 2.953 2.292 2.953 1.477 C 2.953 0.661 2.292 0 1.477 0 C 0.661 0 0 0.661 0 1.477 C 0 2.292 0.661 2.953 1.477 2.953 Z" fill="transparent" height="2.9533333333333367px" id="aX8oc49sY" stroke-dasharray="" stroke-linecap="round" stroke-linejoin="round" stroke-width="var(--hqwsut, 1)" stroke="var(--iuf2md, var(--token-57926c2e-1b32-46f0-b1a4-3565643d40b9, rgb(38, 113, 217)))" transform="translate(15.13 19.447)" width="2.9533333333333385px"></path><path d="M 2.694 0 L 0 2.694 L 2.694 5.388 L 5.388 2.694 Z" fill="transparent" height="5.388133333333333px" id="xeMgmGzFh" stroke-dasharray="" stroke-linecap="round" stroke-linejoin="round" stroke-width="var(--hqwsut, 1)" stroke="var(--iuf2md, var(--token-57926c2e-1b32-46f0-b1a4-3565643d40b9, rgb(38, 113, 217)))" transform="translate(2.502 7.906)" width="5.388166666666659px"></path><path d="M 3.657 0 L 0.523 0 C 0.234 0 0 0.234 0 0.523 L 0 2.657 C 0 2.946 0.234 3.18 0.523 3.18 L 3.657 3.18 C 3.946 3.18 4.18 2.946 4.18 2.657 L 4.18 0.523 C 4.18 0.234 3.946 0 3.657 0 Z" fill="transparent" height="3.179999999999989px" id="aO9qij7CD" stroke-dasharray="" stroke-linecap="round" stroke-linejoin="round" stroke-width="var(--hqwsut, 1)" stroke="var(--iuf2md, var(--token-57926c2e-1b32-46f0-b1a4-3565643d40b9, rgb(38, 113, 217)))" transform="translate(3.103 16.523)" width="4.180000000000007px"></path><path d="M 0 0 L 3.207 0 L 3.207 17.333 L 7.847 17.333" fill="transparent" height="17.333326666666682px" id="hqqI7OhVs" stroke-dasharray="" stroke-linecap="round" stroke-linejoin="round" stroke-width="var(--hqwsut, 1)" stroke="var(--iuf2md, var(--token-57926c2e-1b32-46f0-b1a4-3565643d40b9, rgb(38, 113, 217)))" transform="translate(7.283 3.59)" width="7.846666666666673px"></path><path d="M 0 0 L 3.207 0" fill="transparent" height="1px" id="wTdYkvr2q" stroke-dasharray="" stroke-linecap="round" stroke-linejoin="round" stroke-width="var(--hqwsut, 1)" stroke="var(--iuf2md, var(--token-57926c2e-1b32-46f0-b1a4-3565643d40b9, rgb(38, 113, 217)))" transform="translate(7.283 18.113)" width="3.2066666666666688px"></path><path d="M 0 0 L 2.603 0" fill="transparent" height="1px" id="kUucNNtqp" stroke-dasharray="" stroke-linecap="round" stroke-linejoin="round" stroke-width="var(--hqwsut, 1)" stroke="var(--iuf2md, var(--token-57926c2e-1b32-46f0-b1a4-3565643d40b9, rgb(38, 113, 217)))" transform="translate(7.887 10.6)" width="2.6033333333333344px"></path><path d="M 7.137 0 L 0.44 0 C 0.197 0 0 0.197 0 0.44 L 0 3.173 C 0 3.416 0.197 3.613 0.44 3.613 L 7.137 3.613 C 7.38 3.613 7.577 3.416 7.577 3.173 L 7.577 0.44 C 7.577 0.197 7.38 0 7.137 0 Z" fill="transparent" height="3.613339999999994px" id="kxp6_FCWp" stroke-dasharray="" stroke-linecap="round" stroke-linejoin="round" stroke-width="var(--hqwsut, 1)" stroke="var(--iuf2md, var(--token-57926c2e-1b32-46f0-b1a4-3565643d40b9, rgb(38, 113, 217)))" transform="translate(13.753 5.157)" width="7.576666666666673px"></path><path d="M 7.137 0 L 0.44 0 C 0.197 0 0 0.197 0 0.44 L 0 3.173 C 0 3.416 0.197 3.613 0.44 3.613 L 7.137 3.613 C 7.38 3.613 7.577 3.416 7.577 3.173 L 7.577 0.44 C 7.577 0.197 7.38 0 7.137 0 Z" fill="transparent" height="3.613333333333344px" id="oUNlWVhZ9" stroke-dasharray="" stroke-linecap="round" stroke-linejoin="round" stroke-width="var(--hqwsut, 1)" stroke="var(--iuf2md, var(--token-57926c2e-1b32-46f0-b1a4-3565643d40b9, rgb(38, 113, 217)))" transform="translate(13.753 12.43)" width="7.576666666666673px"></path><path d="M 3.263 0 L 0 0" fill="transparent" height="1px" id="U7r3L51IX" stroke-dasharray="" stroke-linecap="round" stroke-linejoin="round" stroke-width="var(--hqwsut, 1)" stroke="var(--iuf2md, var(--token-57926c2e-1b32-46f0-b1a4-3565643d40b9, rgb(38, 113, 217)))" transform="translate(10.49 6.963)" width="3.263333333333339px"></path><path d="M 3.263 0 L 0 0" fill="transparent" height="1px" id="M7KYgHXdH" stroke-dasharray="" stroke-linecap="round" stroke-linejoin="round" stroke-width="var(--hqwsut, 1)" stroke="var(--iuf2md, var(--token-57926c2e-1b32-46f0-b1a4-3565643d40b9, rgb(38, 113, 217)))" transform="translate(10.49 14.237)" width="3.263333333333339px"></path><path d="M 0 0 L 3.003 0" fill="transparent" height="1px" id="bU9k1vYHj" stroke-dasharray="" stroke-linecap="round" stroke-linejoin="round" stroke-width="var(--hqwsut, 1)" stroke="var(--iuf2md, var(--token-57926c2e-1b32-46f0-b1a4-3565643d40b9, rgb(38, 113, 217)))" transform="translate(16.063 6.963)" width="3.0033333333333303px"></path><path d="M 0 0 L 3.003 0" fill="transparent" height="1px" id="bhG26qFdk" stroke-dasharray="" stroke-linecap="round" stroke-linejoin="round" stroke-width="var(--hqwsut, 1)" stroke="var(--iuf2md, var(--token-57926c2e-1b32-46f0-b1a4-3565643d40b9, rgb(38, 113, 217)))" transform="translate(16.063 14.237)" width="3.0033333333333303px"></path></svg>