<svg xmlns="http://www.w3.org/2000/svg" width="96" height="96" fill="none"><path fill="#077AF1" d="M49.188 62.996a.75.75 0 0 0 .75-.75v-2.597h18.92a.75.75 0 0 0 .751-.75V21.913a.75.75 0 0 0-.75-.75h-17.79a5.187 5.187 0 1 0-5.88 5.88v3.297l-3.804 3.805H30.487a.75.75 0 0 0-.75.75v5.715h-2.595a.75.75 0 0 0-.75.75v6.69a.75.75 0 0 0 .75.75h2.355v6.004h-2.355a.75.75 0 0 0-.75.75v6.691a.75.75 0 0 0 .75.75h6.69a.75.75 0 0 0 .75-.75v-6.69a.75.75 0 0 0-.75-.751h-2.834V48.8h2.834a.75.75 0 0 0 .75-.75v-6.69a.75.75 0 0 0-.75-.751h-2.595v-4.964h10.148l3.805 3.804v1.16h-2.693a.75.75 0 0 0-.75.75v6.69a.75.75 0 0 0 .75.75h2.595v6.004h-2.596a.75.75 0 0 0-.75.75v6.691a.75.75 0 0 0 .75.75h2.596v5.959a5.19 5.19 0 1 0 1.5 0v-5.958zM33.08 61.495h-5.19v-5.19h5.19zm0-14.195h-5.19v-5.19h5.19zm16.45 26.789a3.689 3.689 0 1 1-7.378 0c0-4.855 7.378-4.853 7.378-.002zm18.577-30.134h-2.816V41.36a.75.75 0 0 0-.75-.75h-2.594v-5.714a.75.75 0 0 0-.75-.75H50.494L46.69 30.34v-3.298a5.19 5.19 0 0 0 4.38-4.38h17.038zm-4.317-1.844v5.19H58.6v-5.19zM42.25 21.913a3.69 3.69 0 1 1 7.38 0 3.69 3.69 0 0 1-7.38 0m3.151 10.337a.74.74 0 0 0 1.076 0l2.646 2.646-3.183 3.183-3.183-3.183zm-2.155 9.86h5.19v5.19h-5.19zm3.346 6.69h2.595a.75.75 0 0 0 .75-.75v-6.69a.75.75 0 0 0-.75-.75H46.69v-1.16l3.805-3.804h9.952v4.964h-2.595a.75.75 0 0 0-.75.75v6.69a.75.75 0 0 0 .75.75h6.691a.75.75 0 0 0 .75-.75v-2.594h2.815v12.692h-18.17v-2.595a.75.75 0 0 0-.75-.75h-2.595zm-3.346 7.505h5.19v5.19h-5.19z"/></svg>