<svg xmlns="http://www.w3.org/2000/svg" width="96" height="96" fill="none"><path fill="#077AF1" d="M30.439 53.582h1.396l3.728-9.65h-1.418zm-6.952-3.61 6.363 3.276v-1.45l-4.62-2.33 4.62-2.32v-1.46l-6.363 3.286zm12.665 3.268 6.362-3.264v-1.022l-6.362-3.276v1.47l4.65 2.31-4.65 2.331zm-3.96 5.165a.68.68 0 0 0 .681.68H60.63a.681.681 0 0 0 0-1.362H32.873a.68.68 0 0 0-.68.682m16.847 4.34a.68.68 0 0 0-.682-.68H24.4a.681.681 0 1 0 0 1.362h23.958a.68.68 0 0 0 .681-.682m-19.664 3.659a.681.681 0 1 0 0 1.362h4.973a.681.681 0 0 0 0-1.362zm-7.552-33.351a2.398 2.398 0 1 0 4.796 0 2.398 2.398 0 0 0-4.796 0m3.433 0a1.036 1.036 0 1 1-1.036-1.036 1.043 1.043 0 0 1 1.036 1.036m2.507 0a2.398 2.398 0 1 0 4.796 0 2.398 2.398 0 0 0-4.796 0m3.433 0a1.035 1.035 0 1 1-2.071 0 1.035 1.035 0 0 1 2.07 0m2.507 0a2.398 2.398 0 1 0 4.797 0 2.398 2.398 0 0 0-4.797 0m3.433 0a1.035 1.035 0 1 1-2.07 0 1.035 1.035 0 0 1 2.07 0"/><path fill="#077AF1" d="M76.542 35.449a2.39 2.39 0 0 0 2.384-2.39v-15.58a2.384 2.384 0 0 0-2.384-2.384H58.77a2.384 2.384 0 0 0-2.384 2.384v9.38h-5.81a.681.681 0 0 0 0 1.363h5.81v4.15l.102 1.362a2.38 2.38 0 0 0 2.282 1.716h9.646v2.425H19.214v-8.092a1.56 1.56 0 0 1 1.56-1.56h33.378a.68.68 0 0 0 0-1.362H20.774a2.92 2.92 0 0 0-2.923 2.922v48.763a.681.681 0 0 0 1.363 0V39.24h49.205v24.026h-2.316a.52.52 0 0 1-.334-.116l-2.132-1.792a1.9 1.9 0 0 0-1.206-.436h-7.077a1.884 1.884 0 0 0-1.88 1.88v7.946H49.88a.681.681 0 0 0 0 1.363h3.596v2.978h-12.07a.681.681 0 0 0 0 1.362h12.07v2.57q0 .265.075.518H19.216v-2.098a.681.681 0 1 0-1.362 0v2.1h-.099a.68.68 0 1 0 0 1.362h56.971a.67.67 0 0 0 .586-.353h.004a1.84 1.84 0 0 0 .79-1.526V65.15a1.88 1.88 0 0 0-1.88-1.88h-4.445c0-2.716 0 10.09-.003-27.812zM54.84 79.018v-8.636a.516.516 0 0 1 .517-.511h18.87a.516.516 0 0 1 .517.51v8.638a.52.52 0 0 1-.518.518H55.357a.52.52 0 0 1-.517-.52m18.03-10.511H57.184v-1.383a.09.09 0 0 1 .088-.088h15.51a.09.09 0 0 1 .09.088zm1.874-3.365v3.44a1.8 1.8 0 0 0-.511-.075v-1.383a1.456 1.456 0 0 0-1.451-1.45h-15.51a1.456 1.456 0 0 0-1.451 1.45v1.383h-.464q-.264 0-.517.075v-5.783a.517.517 0 0 1 .517-.518h7.078a.5.5 0 0 1 .334.123l2.125 1.784c.342.281.77.435 1.212.436h8.12a.517.517 0 0 1 .518.518M58.77 34.087a1.04 1.04 0 0 1-1.022-1.029V17.48a1.02 1.02 0 0 1 1.022-1.021h17.772a1.02 1.02 0 0 1 1.022 1.021v15.58a1.026 1.026 0 0 1-1.022 1.028z"/><path fill="#077AF1" d="M61.877 24.366a.68.68 0 0 0 .68-.681v-5.124a.681.681 0 0 0-1.361 0v5.124a.68.68 0 0 0 .68.681m5.784-5.579a2.336 2.336 0 1 0 0 4.672 2.336 2.336 0 0 0 0-4.672m0 3.31a.974.974 0 1 1 0-1.948.974.974 0 0 1 0 1.949m5.777 2.268a.68.68 0 0 0 .681-.681v-5.124a.681.681 0 1 0-1.362 0v5.124a.68.68 0 0 0 .681.681m-5.78 1.807a.68.68 0 0 0-.682.68v5.125a.681.681 0 1 0 1.363 0v-5.124a.68.68 0 0 0-.681-.681m-5.78.907a2.336 2.336 0 1 0 0 4.674 2.336 2.336 0 0 0 0-4.673m0 3.31a.974.974 0 1 1 0-1.947.974.974 0 0 1 0 1.947m11.559 1.359a2.336 2.336 0 1 0 0-4.673 2.336 2.336 0 0 0 0 4.673m0-3.31a.974.974 0 1 1 0 1.948.974.974 0 0 1 0-1.948"/></svg>