<svg xmlns="http://www.w3.org/2000/svg" width="96" height="96" fill="none"><path fill="#fff" fill-rule="evenodd" d="M60.83 40.049h4.148V19.545a1.604 1.604 0 0 0-1.596-1.597h-4.085v20.567a1.54 1.54 0 0 0 1.534 1.534M17.668 74.078v5.369a.907.907 0 0 0 .906.9H63.38a.9.9 0 0 0 .9-.9V41.44h-3.452a2.934 2.934 0 0 1-2.929-2.929V18.646H29.356v9.38a2.3 2.3 0 0 1-2.298 2.301H17.67z" clip-rule="evenodd"/><path fill="#fff" d="M75.459 18.22h-13.29v6.028h13.29zm-9.086 8.814H62.17v3.826h4.203zm9.086 0h-4.204v3.826h4.204zm-9.086 6.612H62.17v3.826h4.203zm9.086 0h-4.204v3.826h4.204z"/><path fill="#077AF1" fill-rule="evenodd" d="m16.275 74.015-.002.063.002 2.792zm1.395 2.855-.003-2.792v2.854z" clip-rule="evenodd"/><path fill="#077AF1" d="M21.544 75.033a.697.697 0 0 0 .697.697h4.657a.697.697 0 0 0 .698-.697v-6.857a.7.7 0 0 0-.698-.697h-4.657a.7.7 0 0 0-.697.697zm1.395-6.16H26.2v5.463h-3.26zm7.505-9.297a.7.7 0 0 0-.698.697v14.76a.697.697 0 0 0 .698.697H35.1a.697.697 0 0 0 .697-.697v-14.76a.697.697 0 0 0-.697-.697zm3.959 14.76H31.14V60.97h3.262zm4.243-10.228a.7.7 0 0 0-.697.698v10.227a.697.697 0 0 0 .697.697h4.657a.697.697 0 0 0 .697-.697V64.806a.7.7 0 0 0-.697-.698zm3.96 10.228h-3.263v-8.833h3.263zm4.243-17.781a.697.697 0 0 0-.697.697v17.78a.697.697 0 0 0 .697.698h4.657a.697.697 0 0 0 .697-.697V57.252a.697.697 0 0 0-.697-.697zm3.96 17.78h-3.263V57.95h3.263zm3.545-21.848v22.546a.697.697 0 0 0 .697.697h4.657a.697.697 0 0 0 .697-.697V52.487a.697.697 0 0 0-.697-.697H55.05a.7.7 0 0 0-.697.697m1.394.698h3.262v21.15h-3.262z"/><path fill="#077AF1" d="M33.035 51.842a.7.7 0 0 0-.776.173l-8.203 8.926a.7.7 0 0 0 .266 1.14.7.7 0 0 0 .76-.197l7.875-8.567 7.754 3.165a.7.7 0 0 0 .73-.127l15.167-13.7-.102 2.432a.697.697 0 1 0 1.395.058l.176-4.194a.7.7 0 0 0-.668-.726l-4.197-.174a.704.704 0 0 0-.725.668.697.697 0 0 0 .668.725l2.596.108-14.918 13.474zM22.241 34.858h23.464a.697.697 0 0 0 0-1.395H22.24a.697.697 0 1 0 0 1.395m.001 6.586h23.464a.698.698 0 0 0 0-1.395H22.24a.698.698 0 0 0 0 1.395M76.155 18.22a.697.697 0 0 0-.697-.697H62.17a.697.697 0 0 0-.697.697v6.028a.697.697 0 0 0 .697.698h13.288a.697.697 0 0 0 .697-.698zm-1.394 5.331H62.868v-4.633H74.76zm-7.691 3.483a.697.697 0 0 0-.697-.697H62.17a.697.697 0 0 0-.697.697v3.826a.697.697 0 0 0 .697.697h4.203a.697.697 0 0 0 .697-.697zm-1.394 3.129h-2.808V27.73h2.808zm10.479-3.129a.697.697 0 0 0-.697-.697h-4.203a.697.697 0 0 0-.698.697v3.826a.697.697 0 0 0 .698.697h4.203a.697.697 0 0 0 .697-.697zm-1.394 3.129h-2.809V27.73h2.809zm-8.388 2.786H62.17a.697.697 0 0 0-.697.697v3.826a.697.697 0 0 0 .697.698h4.203a.697.697 0 0 0 .697-.698v-3.826a.697.697 0 0 0-.697-.697m-.697 3.826h-2.808v-2.432h2.808zm9.782-3.826h-4.203a.697.697 0 0 0-.698.697v3.826a.7.7 0 0 0 .698.698h4.203a.697.697 0 0 0 .697-.698v-3.826a.697.697 0 0 0-.697-.697m-.697 3.826h-2.809v-2.432h2.809z"/><path fill="#077AF1" fill-rule="evenodd" d="M59.297 17.948v-.767a1.52 1.52 0 0 1 1.534-1.535h15.968a1.54 1.54 0 0 1 1.534 1.535v15.701a.697.697 0 0 0 1.395 0V17.181a2.934 2.934 0 0 0-2.93-2.929H60.832a2.933 2.933 0 0 0-2.929 2.929v.07c-16.748.004-23.92 0-26.985-.001-2.131-.001-2.278-.001-2.278.003 0 0 .017.003-.023.006a.7.7 0 0 0-.18.036.7.7 0 0 0-.279.167L16.484 29.129a.78.78 0 0 0-.209.499V76.87l-.002 2.577c.002.371.096.736.274 1.062a.685.685 0 0 0-.07 1.035c.13.13.308.204.493.204h58.32a.697.697 0 1 0 0-1.395c-4.13 0-4.305 0-4.486.002l-5.317.001a2.3 2.3 0 0 0 .188-.906V41.444H76.8a2.934 2.934 0 0 0 2.928-2.929v-2.954a.697.697 0 0 0-1.394 0v2.954a1.54 1.54 0 0 1-1.534 1.534H60.83a1.54 1.54 0 0 1-1.534-1.534zM27.06 28.931h-8.404l9.303-9.298v8.398a.914.914 0 0 1-.9.9m-9.393 48v-2.853l.003-43.75h9.388a2.3 2.3 0 0 0 2.298-2.302v-9.38h28.542v19.866a2.934 2.934 0 0 0 2.929 2.929h3.451v38.006a.9.9 0 0 1-.9.9H18.574a.907.907 0 0 1-.906-.9z" clip-rule="evenodd"/></svg>