<svg xmlns="http://www.w3.org/2000/svg" width="201" height="104" fill="none"><g clip-path="url(#a)"><path fill="#fff" fill-rule="evenodd" d="M147.2 76.713c2.919 0 4.86-1.377 5.773-3.337l-1.981-.783c-.627 1.291-1.903 2.19-3.798 2.19-2.7 0-4.447-1.559-4.447-4.152 0-2.392 1.648-4.15 4.447-4.15 1.785 0 3.186.895 3.841 2.242l1.963-.775c-.971-1.997-3.09-3.33-5.798-3.33-4.201 0-6.675 2.562-6.675 6.047 0 3.778 2.623 6.048 6.675 6.048" clip-rule="evenodd"/><path fill="#fff" d="M129.398 64.862v1.842h-7.836v2.949h6.869v1.732h-6.869v3.125h8.037v1.842H119.44v-11.49zm-21.242 1.842h-4.575v9.664h-2.122v-9.664h-4.63v-1.842h11.327zm58.527 2.949h7.454v-4.791h2.152v11.463h-2.152v-4.94h-7.454v4.94h-2.151V64.862h2.151zM95.76 24.774c7.62 0 9.643 1.138 10.718 3.699l5.407-1.296c-.954-2.833-2.264-5.786-8.386-6.86-7.897-1.27-24.749-2.065-24.749 8.186 0 4.4 1.71 8.026 12.11 8.98 14.001 1.284 15.968 1.663 15.968 5.397 0 3.263-3.936 4.05-12.451 3.92-8.706-.133-10.204-2.266-11.07-4.402l-5.215 1.46c1.051 5.333 6.493 8.36 19.454 8.1 11.191-.226 15.172-3.855 15.172-9.66.1-8.292-8.501-8.58-15.711-9.481-7.409-.75-12.29-.553-12.29-4.23 0-2.983 3.424-3.813 11.044-3.813m42.294 0c7.619 0 9.643 1.138 10.717 3.699l5.407-1.296c-.954-2.833-2.264-5.786-8.386-6.86-7.896-1.27-24.749-2.065-24.749 8.186 0 4.4 1.71 8.026 12.11 8.98 14.001 1.284 15.968 1.663 15.968 5.397 0 3.263-3.936 4.05-12.451 3.92-8.706-.133-10.204-2.266-11.07-4.402l-5.215 1.46c1.051 5.333 6.493 8.36 19.454 8.1 11.191-.226 15.172-3.855 15.172-9.66.1-8.292-8.5-8.58-15.711-9.481-7.409-.75-12.289-.553-12.289-4.23 0-2.983 3.423-3.813 11.043-3.813m62.159 11.111a82 82 0 0 0-.042-1.518h-18.546v4.782h12.779c-.162 2.05-.247 3.373-1.078 4.585a8 8 0 0 1-.703.882c-1.877 1.72-5.016 2.126-10.663 2.133-9.109 0-13.401-.946-13.168-10.96.225-9.698 3.125-10.834 13.168-10.961 4.037.005 10.618-.15 12.056 3.765l5.408-1.36c-2.008-7.756-11.442-7.494-17.683-7.646-6.661 0-11.98.978-14.795 3.64q-.645.61-1.198 1.317c-2.09 2.668-2.667 5.28-2.779 11.24.112 5.96.941 8.725 2.678 10.944q.68.867 1.469 1.614c3.043 2.877 7.967 3.54 14.625 3.54 7.441 0 12.02-.816 14.862-3.505q.679-.642 1.263-1.388c1.874-2.661 2.168-4.864 2.324-10.175q.014-.45.023-.93"/><g filter="url(#b)"><path fill="#1570FC" fill-rule="evenodd" d="M53.534 64.402c0 4.522-2.296 8.234-6.097 10.684l-.002.001L.214 104V92.477c0-3.88 2.007-7.483 5.305-9.526L29.316 68.3 52.64 53.942c.274.312.446.713.47 1.148l.423 7.528z" clip-rule="evenodd"/></g><path fill="#1570FC" fill-rule="evenodd" d="m1.053 58.887 21.266-13.174 29.373 7.645c.377.098.704.306.95.585L29.316 68.301 2.695 60.06a3.2 3.2 0 0 1-1.642-1.174" clip-rule="evenodd"/><path fill="url(#c)" fill-opacity=".5" fill-rule="evenodd" d="m1.053 58.887 21.266-13.174 29.373 7.645c.377.098.704.306.95.585L29.316 68.301 2.695 60.06a3.2 3.2 0 0 1-1.642-1.174" clip-rule="evenodd" style="mix-blend-mode:plus-darker"/><path fill="url(#d)" fill-opacity=".5" fill-rule="evenodd" d="m1.053 58.887 21.266-13.174 29.373 7.645c.377.098.704.306.95.585L29.316 68.301 2.695 60.06a3.2 3.2 0 0 1-1.642-1.174" clip-rule="evenodd" style="mix-blend-mode:plus-darker"/><g fill-rule="evenodd" clip-rule="evenodd" filter="url(#e)"><path fill="#1570FC" d="M6.312 37.214 53.077 7.079 60.454.724v15.125c0 3.88-2.007 7.483-5.305 9.526L22.32 45.713 1.053 58.888a3.2 3.2 0 0 1-.611-1.765L.214 51.06V48.4c0-4.522 2.297-8.735 6.098-11.185"/><path fill="url(#f)" d="M6.312 37.214 53.077 7.079 60.454.724v15.125c0 3.88-2.007 7.483-5.305 9.526L22.32 45.713 1.053 58.888a3.2 3.2 0 0 1-.611-1.765L.214 51.06V48.4c0-4.522 2.297-8.735 6.098-11.185" style="mix-blend-mode:color-dodge"/></g></g><defs><linearGradient id="c" x1="39.628" x2="45.146" y1="50.433" y2="61.468" gradientUnits="userSpaceOnUse"><stop stop-opacity="0"/><stop offset=".067" stop-opacity=".01"/><stop offset=".133" stop-opacity=".036"/><stop offset=".2" stop-opacity=".082"/><stop offset=".267" stop-opacity=".147"/><stop offset=".333" stop-opacity=".232"/><stop offset=".4" stop-opacity=".332"/><stop offset=".467" stop-opacity=".443"/><stop offset=".533" stop-opacity=".557"/><stop offset=".6" stop-opacity=".668"/><stop offset=".667" stop-opacity=".768"/><stop offset=".733" stop-opacity=".853"/><stop offset=".8" stop-opacity=".918"/><stop offset=".867" stop-opacity=".964"/><stop offset=".933" stop-opacity=".991"/><stop offset="1"/></linearGradient><linearGradient id="d" x1="30.552" x2="23.373" y1="52.45" y2="42.306" gradientUnits="userSpaceOnUse"><stop stop-opacity="0"/><stop offset=".067" stop-opacity=".01"/><stop offset=".133" stop-opacity=".036"/><stop offset=".2" stop-opacity=".082"/><stop offset=".267" stop-opacity=".147"/><stop offset=".333" stop-opacity=".232"/><stop offset=".4" stop-opacity=".332"/><stop offset=".467" stop-opacity=".443"/><stop offset=".533" stop-opacity=".557"/><stop offset=".6" stop-opacity=".668"/><stop offset=".667" stop-opacity=".768"/><stop offset=".733" stop-opacity=".853"/><stop offset=".8" stop-opacity=".918"/><stop offset=".867" stop-opacity=".964"/><stop offset=".933" stop-opacity=".991"/><stop offset="1"/></linearGradient><filter id="b" width="53.32" height="50.457" x=".214" y="53.543" color-interpolation-filters="sRGB" filterUnits="userSpaceOnUse"><feFlood flood-opacity="0" result="BackgroundImageFix"/><feBlend in="SourceGraphic" in2="BackgroundImageFix" result="shape"/><feColorMatrix in="SourceAlpha" result="hardAlpha" values="0 0 0 0 0 0 0 0 0 0 0 0 0 0 0 0 0 0 127 0"/><feOffset dy="-.3"/><feGaussianBlur stdDeviation=".15"/><feComposite in2="hardAlpha" k2="-1" k3="1" operator="arithmetic"/><feColorMatrix values="0 0 0 0 1 0 0 0 0 1 0 0 0 0 1 0 0 0 1 0"/><feBlend in2="shape" mode="overlay" result="effect1_innerShadow_4738_498"/><feColorMatrix in="SourceAlpha" result="hardAlpha" values="0 0 0 0 0 0 0 0 0 0 0 0 0 0 0 0 0 0 127 0"/><feOffset dy="-.4"/><feGaussianBlur stdDeviation=".4"/><feComposite in2="hardAlpha" k2="-1" k3="1" operator="arithmetic"/><feColorMatrix values="0 0 0 0 1 0 0 0 0 1 0 0 0 0 1 0 0 0 0.3 0"/><feBlend in2="effect1_innerShadow_4738_498" mode="overlay" result="effect2_innerShadow_4738_498"/></filter><filter id="e" width="60.24" height="58.564" x=".214" y=".724" color-interpolation-filters="sRGB" filterUnits="userSpaceOnUse"><feFlood flood-opacity="0" result="BackgroundImageFix"/><feBlend in="SourceGraphic" in2="BackgroundImageFix" result="shape"/><feColorMatrix in="SourceAlpha" result="hardAlpha" values="0 0 0 0 0 0 0 0 0 0 0 0 0 0 0 0 0 0 127 0"/><feOffset dy=".3"/><feGaussianBlur stdDeviation=".15"/><feComposite in2="hardAlpha" k2="-1" k3="1" operator="arithmetic"/><feColorMatrix values="0 0 0 0 1 0 0 0 0 1 0 0 0 0 1 0 0 0 1 0"/><feBlend in2="shape" mode="overlay" result="effect1_innerShadow_4738_498"/><feColorMatrix in="SourceAlpha" result="hardAlpha" values="0 0 0 0 0 0 0 0 0 0 0 0 0 0 0 0 0 0 127 0"/><feOffset dy=".4"/><feGaussianBlur stdDeviation=".4"/><feComposite in2="hardAlpha" k2="-1" k3="1" operator="arithmetic"/><feColorMatrix values="0 0 0 0 1 0 0 0 0 1 0 0 0 0 1 0 0 0 0.3 0"/><feBlend in2="effect1_innerShadow_4738_498" mode="overlay" result="effect2_innerShadow_4738_498"/></filter><radialGradient id="f" cx="0" cy="0" r="1" gradientTransform="rotate(-32.707 93.12 -44.724)scale(53.5097 28.8787)" gradientUnits="userSpaceOnUse"><stop offset=".41" stop-color="#13DDFF" stop-opacity="0"/><stop offset=".509" stop-color="#13DDFF" stop-opacity="0"/><stop offset=".664" stop-color="#13DDFF" stop-opacity=".18"/><stop offset="1" stop-color="#13DDFF"/></radialGradient><clipPath id="a"><path fill="#fff" d="M0 0h201v104H0z"/></clipPath></defs></svg>