<svg xmlns="http://www.w3.org/2000/svg" width="96" height="96" fill="none"><path fill="#077AF1" d="M69.385 51.43c.678-.002 1.328-.216 1.808-.597.48-.38.75-.895.752-1.433v-9.056c-.002-.538-.273-1.053-.752-1.433-.48-.38-1.13-.595-1.808-.596h-8.73c-.678.001-1.328.216-1.808.596s-.75.895-.752 1.433v3.774h-2.758v-3.774c-.002-.538-.272-1.053-.752-1.433s-1.13-.595-1.809-.596h-3.413v-4.352h3.413c.678-.002 1.329-.216 1.809-.596s.75-.896.752-1.434v-9.052c-.002-.538-.272-1.053-.752-1.433s-1.13-.595-1.809-.596h-8.729c-.678.001-1.328.216-1.808.596s-.75.895-.752 1.433v9.056c.002.538.272 1.053.752 1.433s1.13.595 1.808.597h3.413v4.35h-3.413c-.678 0-1.328.215-1.808.595s-.75.896-.752 1.434v3.773h-2.758v-3.773c-.002-.538-.273-1.054-.753-1.434s-1.13-.594-1.809-.596H27.44c-.678.002-1.328.216-1.808.596s-.75.896-.753 1.434v9.056c.002.538.273 1.053.753 1.433s1.13.595 1.808.596h3.413v5.75H27.44c-.678.002-1.329.216-1.809.597-.48.38-.75.895-.752 1.434v9.05c0 .54.27 1.056.749 1.438.48.381 1.13.596 1.81.598h8.729c.678-.001 1.329-.215 1.809-.596.48-.38.75-.896.752-1.434v-9.057c-.002-.538-.273-1.053-.753-1.434-.48-.38-1.13-.594-1.808-.596H32.75V51.43h3.415c.678-.001 1.328-.215 1.808-.595s.75-.896.753-1.434v-3.774h2.758V49.4c.002.538.272 1.053.752 1.433s1.13.595 1.808.596h3.413v13.145c0 .2.1.391.28.533.177.141.42.22.672.22h9.684v2.94c.002.539.272 1.054.752 1.435.48.38 1.13.595 1.81.596h8.729c.678-.001 1.328-.216 1.808-.596s.75-.896.752-1.434v-9.057c-.002-.538-.272-1.054-.752-1.434s-1.13-.595-1.808-.596H65.97v-5.752zM43.388 22.88c0-.138.07-.27.193-.369a.76.76 0 0 1 .465-.152h8.729c.175 0 .342.054.466.152.123.098.193.23.193.37v.702H43.388zm0 9.056v-6.845h10.046v6.845c0 .139-.07.271-.193.37a.76.76 0 0 1-.466.152h-8.729a.8.8 0 0 1-.252-.04.7.7 0 0 1-.214-.114.5.5 0 0 1-.142-.17.4.4 0 0 1-.05-.2zM36.166 68.79h-8.728a.76.76 0 0 1-.466-.154.48.48 0 0 1-.194-.369v-6.845h10.047v6.845c0 .139-.07.272-.194.37a.76.76 0 0 1-.465.153m.659-9.578v.703H26.777v-.703c0-.139.07-.271.194-.37a.76.76 0 0 1 .466-.153h8.729c.174 0 .34.056.464.153.123.098.193.23.194.368zM26.778 40.346c0-.138.07-.27.194-.369a.76.76 0 0 1 .465-.152h8.729c.174 0 .342.055.465.152.124.098.193.23.194.37v.703H26.777zm10.047 9.056c0 .139-.07.271-.194.37a.76.76 0 0 1-.465.152h-8.728a.76.76 0 0 1-.466-.153.48.48 0 0 1-.194-.369v-6.845h10.047zm32.56.522h-8.73a.75.75 0 0 1-.465-.153.47.47 0 0 1-.192-.369v-6.845h10.045v6.845a.47.47 0 0 1-.194.367.76.76 0 0 1-.465.153zm-9.387-9.574a.4.4 0 0 1 .05-.2.5.5 0 0 1 .143-.169.7.7 0 0 1 .214-.113.8.8 0 0 1 .252-.04h8.728c.175 0 .343.055.466.153s.193.23.193.37v.703H59.998zm-16.61 0a.48.48 0 0 1 .194-.369.76.76 0 0 1 .465-.153h8.729c.175 0 .342.055.466.153.123.098.193.23.193.37v.703H43.388zm0 2.211h10.047v1.563H43.388zm0 6.845v-3.774h10.047v3.774c0 .139-.07.271-.193.37a.76.76 0 0 1-.466.152h-8.729a.8.8 0 0 1-.254-.04.7.7 0 0 1-.214-.115.5.5 0 0 1-.143-.171.4.4 0 0 1-.048-.202zm25.997 19.385h-8.73a.76.76 0 0 1-.465-.154.48.48 0 0 1-.192-.369v-6.845h10.045v6.845c0 .139-.07.271-.193.37a.76.76 0 0 1-.465.153m.658-9.578v.703H59.997v-.703c0-.139.07-.271.193-.37a.76.76 0 0 1 .466-.153h8.729c.174 0 .34.056.464.153.123.097.193.23.194.368zm-5.974-2.03h-3.413c-.679.001-1.33.216-1.809.596-.48.38-.75.896-.752 1.434v4.609h-8.733V51.429h3.413c.679-.001 1.329-.215 1.809-.595s.75-.896.752-1.434v-3.774h2.758V49.4c.002.538.273 1.053.752 1.433.48.38 1.13.595 1.809.596h3.413z"/></svg>